#!OML:ASF E:\motion texture\Top Level 1\Subject 1\Session 1\male.ASF
:FULLY-SPECIFIED
:DEGREES
739
root -45.3476 17.8068 1.6779 455.752 -80.7243 -451.466
lowerback -5.55345 4.46572 8.9272
upperback -4.85547 5.40396 3.22898
thorax -1.44371 2.42369 -1.3638
lowerneck -3.09618 -0.197874 -6.86054
upperneck -13.9621 0.48596 10.4498
head -3.63975 0.000761073 4.3605
rclavicle 2.77305e-014 -5.56597e-015
rhumerus 27.4514 29.9856 -74.6807
rradius 104.723
rwrist -22.1989
rhand -16.9496 -47.532
rfingers 7.12502
rthumb 9.28396 -77.3075
lclavicle 2.77305e-014 -5.56597e-015
lhumerus 17.1706 -12.5956 78.4705
lradius 110.252
lwrist -1.29493
lhand -23.8898 45.6189
lfingers 7.12502
lthumb 2.58383 75.583
rfemur 1.707 5.42211 35.6366
rtibia 18.0309
rfoot -14.6328 -9.75258
rtoes 4.88412
lfemur -30.019 -2.2963 -3.09386
ltibia 19.2114
lfoot -5.54957 7.23872
ltoes -15.6906
740
root -45.4868 17.7846 1.68851 457.484 -80.7569 -453.129
lowerback -5.70699 4.54665 8.90102
upperback -4.81746 5.48905 3.23351
thorax -1.3137 2.47208 -1.32574
lowerneck -3.32564 -0.18699 -6.80348
upperneck -13.2951 0.486388 10.4479
head -3.40211 0.0200394 4.33837
rclavicle 3.18552e-014 -1.53064e-014
rhumerus 26.5576 30.9808 -75.1573
rradius 105.03
rwrist -22.4919
rhand -17.0645 -47.9866
rfingers 7.12502
rthumb 9.1731 -77.7671
lclavicle 3.18552e-014 -1.53064e-014
lhumerus 15.543 -13.3695 78.9471
lradius 111.264
lwrist -0.61611
lhand -23.698 46.4906
lfingers 7.12502
lthumb 2.76901 76.4524
rfemur 1.89884 5.47401 35.5599
rtibia 18.5297
rfoot -14.9243 -9.65136
rtoes 3.84242
lfemur -30.019 -2.2963 -3.09386
ltibia 19.2114
lfoot -5.54957 7.23872
ltoes -15.6906
741
root -45.6141 17.7651 1.69915 459.355 -80.6885 -454.911
lowerback -5.66208 4.63048 8.99117
upperback -4.78705 5.59963 3.23415
thorax -1.28977 2.52639 -1.36837
lowerneck -3.74532 -0.154553 -6.6923
upperneck -12.6997 0.516256 10.3974
head -3.15824 0.0546091 4.29335
rclavicle 1.17034e-014 2.52457e-014
rhumerus 25.7046 32.0063 -75.6094
rradius 105.406
rwrist -22.6807
rhand -17.3162 -48.6432
rfingers 7.12502
rthumb 8.93022 -78.4342
lclavicle 1.17034e-014 2.52457e-014
lhumerus 13.8573 -14.1185 79.4201
lradius 112.488
lwrist 0.40594
lhand -23.2888 47.7148
lfingers 7.12502
lthumb 3.16416 77.6711
rfemur 1.90184 5.56926 35.5653
rtibia 19.2599
rfoot -15.1701 -9.41432
rtoes 3.38869
lfemur -30.019 -2.2963 -3.09386
ltibia 19.2114
lfoot -5.54957 7.23872
ltoes -15.6906
742
root -45.7497 17.7433 1.70966 461.178 -80.7156 -456.713
lowerback -5.72646 4.70872 8.96412
upperback -4.71639 5.6933 3.2005
thorax -1.17057 2.58051 -1.37361
lowerneck -4.07167 -0.216919 -6.60013
upperneck -11.9898 0.423351 10.5031
head -2.8842 0.0252679 4.30121
rclavicle -6.91274e-014 -3.04141e-014
rhumerus 24.6768 33.081 -76.1394
rradius 105.805
rwrist -22.7658
rhand -17.535 -49.2077
rfingers 7.12502
rthumb 8.71912 -79.0077
lclavicle -6.91274e-014 -3.04141e-014
lhumerus 12.1228 -15.0439 80.0516
lradius 113.298
lwrist 0.532795
lhand -23.5923 48.1496
lfingers 7.12502
lthumb 2.87106 78.11
rfemur 2.03689 5.65406 35.4526
rtibia 19.9089
rfoot -15.4163 -9.25113
rtoes 2.22732
lfemur -30.019 -2.2963 -3.09386
ltibia 19.2114
lfoot -5.54957 7.23872
ltoes -15.6906
743
root -45.8831 17.7217 1.72594 462.82 -80.7871 -458.325
lowerback -5.68224 4.74524 8.94359
upperback -4.66581 5.7477 3.14816
thorax -1.13367 2.61157 -1.41394
lowerneck -4.4424 -0.216642 -6.38564
upperneck -11.2405 0.392376 10.3842
head -2.59952 0.0316937 4.21797
rclavicle 4.34841e-015 4.57205e-015
rhumerus 23.6387 34.2414 -76.6083
rradius 106.244
rwrist -22.8918
rhand -17.8647 -49.6357
rfingers 7.12502
rthumb 8.40088 -79.4486
lclavicle 4.34841e-015 4.57205e-015
lhumerus 10.286 -15.9064 80.6689
lradius 114.29
lwrist 0.878081
lhand -23.5996 48.6908
lfingers 7.12502
lthumb 2.864 78.6513
rfemur 2.10634 5.71981 35.2606
rtibia 20.6851
rfoot -15.7094 -9.07173
rtoes 0.973461
lfemur -30.019 -2.2963 -3.09386
ltibia 19.2114
lfoot -5.54957 7.23872
ltoes -15.6906
744
root -46.017 17.7009 1.73839 464.429 -80.7341 -459.957
lowerback -5.66187 4.7948 8.98296
upperback -4.54085 5.8088 3.13981
thorax -1.00429 2.65048 -1.43539
lowerneck -4.94287 -0.279102 -6.29793
upperneck -10.555 0.291406 10.3825
head -2.30643 0.00572182 4.19478
rclavicle 3.68249e-014 2.0276e-014
rhumerus 22.5915 35.4582 -77.0293
rradius 106.76
rwrist -23.0105
rhand -18.3265 -50.0466
rfingers 7.12502
rthumb 7.95518 -79.8769
lclavicle 3.68249e-014 2.0276e-014
lhumerus 8.45022 -16.892 81.35
lradius 115.252
lwrist 0.955494
lhand -23.6149 49.259
lfingers 7.12502
lthumb 2.8493 79.2197
rfemur 2.12694 5.80738 35.2035
rtibia 21.6002
rfoot -15.9705 -8.88237
rtoes -0.224812
lfemur -30.019 -2.2963 -3.09386
ltibia 19.2114
lfoot -5.54957 7.23872
ltoes -15.6906
745
root -46.1645 17.6811 1.75714 465.476 -80.7111 -461.005
lowerback -5.80014 4.78468 9.05229
upperback -4.39057 5.76566 3.15328
thorax -0.769274 2.64083 -1.44356
lowerneck -5.54719 -0.318135 -6.34634
upperneck -9.76127 0.228953 10.4769
head -1.96787 0.00655955 4.22358
rclavicle -1.18028e-014 -2.127e-014
rhumerus 21.4583 36.8609 -77.4743
rradius 107.315
rwrist -22.9886
rhand -18.7042 -50.2484
rfingers 7.12502
rthumb 7.59071 -80.0922
lclavicle -1.18028e-014 -2.127e-014
lhumerus 6.49961 -17.8618 82.1337
lradius 116.158
lwrist 0.952991
lhand -23.733 49.665
lfingers 7.12502
lthumb 2.73519 79.6272
rfemur 2.26772 5.68575 35.0686
rtibia 22.3567
rfoot -16.1622 -8.55916
rtoes -1.59601
lfemur -30.019 -2.2963 -3.09386
ltibia 19.2114
lfoot -5.54957 7.23872
ltoes -15.6906
746
root -46.2968 17.664 1.77203 466.553 -80.5173 -462.126
lowerback -5.61788 4.85983 9.24589
upperback -4.34296 5.87838 3.13101
thorax -0.790915 2.69383 -1.57521
lowerneck -5.85899 -0.376879 -6.07857
upperneck -8.98248 0.075618 10.1099
head -1.89193 -0.0308631 4.48456
rclavicle 3.38679e-014 3.8763e-014
rhumerus 20.0338 38.0979 -78.0558
rradius 107.881
rwrist -22.7417
rhand -19.1245 -50.377
rfingers 7.12502
rthumb 7.18494 -80.2351
lclavicle 3.38679e-014 3.8763e-014
lhumerus 4.46189 -19.1811 82.9693
lradius 117.024
lwrist 0.921899
lhand -23.8572 49.5961
lfingers 7.12502
lthumb 2.61526 79.5598
rfemur 2.25513 5.7959 35.1832
rtibia 23.3691
rfoot -16.324 -8.43101
rtoes -2.96915
lfemur -30.019 -2.2963 -3.09386
ltibia 19.2114
lfoot -5.54957 7.23872
ltoes -15.6906
747
root -46.4407 17.6456 1.7888 467.592 -80.4455 -463.298
lowerback -5.52437 4.89351 9.33629
upperback -4.21246 5.9264 3.09973
thorax -0.690186 2.72498 -1.65414
lowerneck -6.35762 -0.457863 -6.07683
upperneck -8.2053 -0.0438216 10.324
head -1.53248 -0.0667449 4.54648
rclavicle -2.92213e-014 1.19271e-015
rhumerus 18.6004 39.4633 -78.6399
rradius 108.444
rwrist -22.2854
rhand -19.5414 -50.2865
rfingers 7.12502
rthumb 6.78254 -80.1579
lclavicle -2.92213e-014 1.19271e-015
lhumerus 2.34081 -20.4786 83.8339
lradius 117.854
lwrist 0.714518
lhand -23.9374 49.1601
lfingers 7.12502
lthumb 2.53781 79.1248
rfemur 2.39758 5.71246 35.0946
rtibia 24.3188
rfoot -16.4535 -8.14664
rtoes -4.22179
lfemur -30.019 -2.2963 -3.09386
ltibia 19.2114
lfoot -5.54957 7.23872
ltoes -15.6906
748
root -46.586 17.6279 1.80386 469.155 -80.4495 -465.059
lowerback -5.45721 4.9434 9.25105
upperback -3.96301 5.99447 3.11537
thorax -0.469115 2.77926 -1.58081
lowerneck -6.71235 -0.508065 -6.08181
upperneck -7.76305 -0.119726 10.3623
head -1.31523 -0.0878047 4.55297
rclavicle 1.61761e-014 3.18055e-015
rhumerus 17.3142 40.9019 -79.0241
rradius 108.965
rwrist -21.6159
rhand -19.9463 -50.046
rfingers 7.12502
rthumb 6.39169 -79.9295
lclavicle 1.61761e-014 3.18055e-015
lhumerus 0.33558 -21.7558 84.8513
lradius 118.498
lwrist 0.248824
lhand -24.1927 48.2347
lfingers 7.12502
lthumb 2.29128 78.2022
rfemur 2.58257 5.75175 34.9159
rtibia 25.332
rfoot -16.5057 -7.93704
rtoes -5.44441
lfemur -30.019 -2.2963 -3.09386
ltibia 19.2114
lfoot -5.54957 7.23872
ltoes -15.6906
